<mxfile host="app.diagrams.net" agent="Mozilla/5.0 (X11; Linux x86_64; rv:141.0) Gecko/20100101 Firefox/141.0" version="27.1.1">
  <diagram name="Page-1" id="a6xLyUYem5LVwotTpM_O">
    <mxGraphModel dx="1416" dy="858" grid="1" gridSize="10" guides="1" tooltips="1" connect="1" arrows="1" fold="1" page="1" pageScale="1" pageWidth="1169" pageHeight="827" math="0" shadow="0">
      <root>
        <mxCell id="0" />
        <mxCell id="1" parent="0" />
        <mxCell id="0cwtL51T9AqTmGfK-nnY-42" style="edgeStyle=orthogonalEdgeStyle;rounded=0;orthogonalLoop=1;jettySize=auto;html=1;exitX=0.75;exitY=1;exitDx=0;exitDy=0;entryX=0;entryY=0.5;entryDx=0;entryDy=0;endArrow=none;startFill=0;" edge="1" parent="1" source="0cwtL51T9AqTmGfK-nnY-1">
          <mxGeometry relative="1" as="geometry">
            <mxPoint x="770" y="690" as="targetPoint" />
            <Array as="points">
              <mxPoint x="540" y="690" />
            </Array>
          </mxGeometry>
        </mxCell>
        <mxCell id="0cwtL51T9AqTmGfK-nnY-1" value="Goal" style="swimlane;fontStyle=0;childLayout=stackLayout;horizontal=1;startSize=30;horizontalStack=0;resizeParent=1;resizeParentMax=0;resizeLast=0;collapsible=1;marginBottom=0;whiteSpace=wrap;html=1;" vertex="1" parent="1">
          <mxGeometry x="435" y="399" width="140" height="210" as="geometry" />
        </mxCell>
        <mxCell id="0cwtL51T9AqTmGfK-nnY-2" value="id_goal&lt;span style=&quot;white-space: pre;&quot;&gt;&#x9;&lt;/span&gt;" style="text;strokeColor=none;fillColor=none;align=left;verticalAlign=middle;spacingLeft=4;spacingRight=4;overflow=hidden;points=[[0,0.5],[1,0.5]];portConstraint=eastwest;rotatable=0;whiteSpace=wrap;html=1;" vertex="1" parent="0cwtL51T9AqTmGfK-nnY-1">
          <mxGeometry y="30" width="140" height="30" as="geometry" />
        </mxCell>
        <mxCell id="0cwtL51T9AqTmGfK-nnY-3" value="name" style="text;strokeColor=none;fillColor=none;align=left;verticalAlign=middle;spacingLeft=4;spacingRight=4;overflow=hidden;points=[[0,0.5],[1,0.5]];portConstraint=eastwest;rotatable=0;whiteSpace=wrap;html=1;" vertex="1" parent="0cwtL51T9AqTmGfK-nnY-1">
          <mxGeometry y="60" width="140" height="30" as="geometry" />
        </mxCell>
        <mxCell id="0cwtL51T9AqTmGfK-nnY-4" value="deadline_rrule" style="text;strokeColor=none;fillColor=none;align=left;verticalAlign=middle;spacingLeft=4;spacingRight=4;overflow=hidden;points=[[0,0.5],[1,0.5]];portConstraint=eastwest;rotatable=0;whiteSpace=wrap;html=1;" vertex="1" parent="0cwtL51T9AqTmGfK-nnY-1">
          <mxGeometry y="90" width="140" height="30" as="geometry" />
        </mxCell>
        <mxCell id="0cwtL51T9AqTmGfK-nnY-5" value="stake" style="text;strokeColor=none;fillColor=none;align=left;verticalAlign=middle;spacingLeft=4;spacingRight=4;overflow=hidden;points=[[0,0.5],[1,0.5]];portConstraint=eastwest;rotatable=0;whiteSpace=wrap;html=1;" vertex="1" parent="0cwtL51T9AqTmGfK-nnY-1">
          <mxGeometry y="120" width="140" height="30" as="geometry" />
        </mxCell>
        <mxCell id="0cwtL51T9AqTmGfK-nnY-6" value="mode" style="text;strokeColor=none;fillColor=none;align=left;verticalAlign=middle;spacingLeft=4;spacingRight=4;overflow=hidden;points=[[0,0.5],[1,0.5]];portConstraint=eastwest;rotatable=0;whiteSpace=wrap;html=1;" vertex="1" parent="0cwtL51T9AqTmGfK-nnY-1">
          <mxGeometry y="150" width="140" height="30" as="geometry" />
        </mxCell>
        <mxCell id="0cwtL51T9AqTmGfK-nnY-52" value="status" style="text;strokeColor=none;fillColor=none;align=left;verticalAlign=middle;spacingLeft=4;spacingRight=4;overflow=hidden;points=[[0,0.5],[1,0.5]];portConstraint=eastwest;rotatable=0;whiteSpace=wrap;html=1;" vertex="1" parent="0cwtL51T9AqTmGfK-nnY-1">
          <mxGeometry y="180" width="140" height="30" as="geometry" />
        </mxCell>
        <mxCell id="0cwtL51T9AqTmGfK-nnY-7" value="Profile" style="swimlane;fontStyle=0;childLayout=stackLayout;horizontal=1;startSize=30;horizontalStack=0;resizeParent=1;resizeParentMax=0;resizeLast=0;collapsible=1;marginBottom=0;whiteSpace=wrap;html=1;" vertex="1" parent="1">
          <mxGeometry x="770" y="93" width="140" height="210" as="geometry" />
        </mxCell>
        <mxCell id="0cwtL51T9AqTmGfK-nnY-9" value="username" style="text;strokeColor=none;fillColor=none;align=left;verticalAlign=middle;spacingLeft=4;spacingRight=4;overflow=hidden;points=[[0,0.5],[1,0.5]];portConstraint=eastwest;rotatable=0;whiteSpace=wrap;html=1;" vertex="1" parent="0cwtL51T9AqTmGfK-nnY-7">
          <mxGeometry y="30" width="140" height="30" as="geometry" />
        </mxCell>
        <mxCell id="0cwtL51T9AqTmGfK-nnY-8" value="id_authusers" style="text;strokeColor=none;fillColor=none;align=left;verticalAlign=middle;spacingLeft=4;spacingRight=4;overflow=hidden;points=[[0,0.5],[1,0.5]];portConstraint=eastwest;rotatable=0;whiteSpace=wrap;html=1;" vertex="1" parent="0cwtL51T9AqTmGfK-nnY-7">
          <mxGeometry y="60" width="140" height="30" as="geometry" />
        </mxCell>
        <mxCell id="0cwtL51T9AqTmGfK-nnY-10" value="id_stripe" style="text;strokeColor=none;fillColor=none;align=left;verticalAlign=middle;spacingLeft=4;spacingRight=4;overflow=hidden;points=[[0,0.5],[1,0.5]];portConstraint=eastwest;rotatable=0;whiteSpace=wrap;html=1;" vertex="1" parent="0cwtL51T9AqTmGfK-nnY-7">
          <mxGeometry y="90" width="140" height="30" as="geometry" />
        </mxCell>
        <mxCell id="0cwtL51T9AqTmGfK-nnY-50" value="display_name" style="text;strokeColor=none;fillColor=none;align=left;verticalAlign=middle;spacingLeft=4;spacingRight=4;overflow=hidden;points=[[0,0.5],[1,0.5]];portConstraint=eastwest;rotatable=0;whiteSpace=wrap;html=1;" vertex="1" parent="0cwtL51T9AqTmGfK-nnY-7">
          <mxGeometry y="120" width="140" height="30" as="geometry" />
        </mxCell>
        <mxCell id="0cwtL51T9AqTmGfK-nnY-51" value="email" style="text;strokeColor=none;fillColor=none;align=left;verticalAlign=middle;spacingLeft=4;spacingRight=4;overflow=hidden;points=[[0,0.5],[1,0.5]];portConstraint=eastwest;rotatable=0;whiteSpace=wrap;html=1;" vertex="1" parent="0cwtL51T9AqTmGfK-nnY-7">
          <mxGeometry y="150" width="140" height="30" as="geometry" />
        </mxCell>
        <mxCell id="0cwtL51T9AqTmGfK-nnY-90" value="role" style="text;strokeColor=none;fillColor=none;align=left;verticalAlign=middle;spacingLeft=4;spacingRight=4;overflow=hidden;points=[[0,0.5],[1,0.5]];portConstraint=eastwest;rotatable=0;whiteSpace=wrap;html=1;" vertex="1" parent="0cwtL51T9AqTmGfK-nnY-7">
          <mxGeometry y="180" width="140" height="30" as="geometry" />
        </mxCell>
        <mxCell id="0cwtL51T9AqTmGfK-nnY-61" style="edgeStyle=orthogonalEdgeStyle;rounded=0;orthogonalLoop=1;jettySize=auto;html=1;exitX=1;exitY=0.5;exitDx=0;exitDy=0;entryX=0;entryY=0.5;entryDx=0;entryDy=0;endArrow=none;startFill=0;" edge="1" parent="1" source="0cwtL51T9AqTmGfK-nnY-70" target="0cwtL51T9AqTmGfK-nnY-60">
          <mxGeometry relative="1" as="geometry">
            <mxPoint x="910" y="694" as="sourcePoint" />
            <Array as="points">
              <mxPoint x="1000" y="704" />
              <mxPoint x="1000" y="740" />
            </Array>
          </mxGeometry>
        </mxCell>
        <mxCell id="0cwtL51T9AqTmGfK-nnY-62" style="edgeStyle=orthogonalEdgeStyle;rounded=0;orthogonalLoop=1;jettySize=auto;html=1;exitX=1;exitY=0.5;exitDx=0;exitDy=0;entryX=0.493;entryY=1;entryDx=0;entryDy=0;endArrow=none;startFill=0;entryPerimeter=0;" edge="1" parent="1" source="0cwtL51T9AqTmGfK-nnY-69" target="0cwtL51T9AqTmGfK-nnY-58">
          <mxGeometry relative="1" as="geometry">
            <mxPoint x="910" y="679" as="sourcePoint" />
            <Array as="points">
              <mxPoint x="910" y="660" />
              <mxPoint x="950" y="660" />
              <mxPoint x="950" y="610" />
              <mxPoint x="1079" y="610" />
            </Array>
          </mxGeometry>
        </mxCell>
        <mxCell id="0cwtL51T9AqTmGfK-nnY-37" style="edgeStyle=orthogonalEdgeStyle;rounded=0;orthogonalLoop=1;jettySize=auto;html=1;exitX=0.75;exitY=1;exitDx=0;exitDy=0;entryX=0;entryY=0.5;entryDx=0;entryDy=0;endArrow=none;startFill=0;" edge="1" parent="1" source="0cwtL51T9AqTmGfK-nnY-17" target="0cwtL51T9AqTmGfK-nnY-3">
          <mxGeometry relative="1" as="geometry" />
        </mxCell>
        <mxCell id="0cwtL51T9AqTmGfK-nnY-40" style="edgeStyle=orthogonalEdgeStyle;rounded=0;orthogonalLoop=1;jettySize=auto;html=1;exitX=1;exitY=0.75;exitDx=0;exitDy=0;endArrow=none;startFill=0;" edge="1" parent="1">
          <mxGeometry relative="1" as="geometry">
            <mxPoint x="290" y="204.5" as="sourcePoint" />
            <mxPoint x="770" y="200" as="targetPoint" />
            <Array as="points">
              <mxPoint x="290" y="200" />
              <mxPoint x="771" y="200" />
            </Array>
          </mxGeometry>
        </mxCell>
        <mxCell id="0cwtL51T9AqTmGfK-nnY-17" value="Group" style="swimlane;fontStyle=0;childLayout=stackLayout;horizontal=1;startSize=30;horizontalStack=0;resizeParent=1;resizeParentMax=0;resizeLast=0;collapsible=1;marginBottom=0;whiteSpace=wrap;html=1;" vertex="1" parent="1">
          <mxGeometry x="150" y="155" width="140" height="90" as="geometry" />
        </mxCell>
        <mxCell id="0cwtL51T9AqTmGfK-nnY-49" value="id_group" style="text;strokeColor=none;fillColor=none;align=left;verticalAlign=middle;spacingLeft=4;spacingRight=4;overflow=hidden;points=[[0,0.5],[1,0.5]];portConstraint=eastwest;rotatable=0;whiteSpace=wrap;html=1;" vertex="1" parent="0cwtL51T9AqTmGfK-nnY-17">
          <mxGeometry y="30" width="140" height="30" as="geometry" />
        </mxCell>
        <mxCell id="0cwtL51T9AqTmGfK-nnY-18" value="name" style="text;strokeColor=none;fillColor=none;align=left;verticalAlign=middle;spacingLeft=4;spacingRight=4;overflow=hidden;points=[[0,0.5],[1,0.5]];portConstraint=eastwest;rotatable=0;whiteSpace=wrap;html=1;" vertex="1" parent="0cwtL51T9AqTmGfK-nnY-17">
          <mxGeometry y="60" width="140" height="30" as="geometry" />
        </mxCell>
        <mxCell id="0cwtL51T9AqTmGfK-nnY-38" value="*" style="text;html=1;align=center;verticalAlign=middle;resizable=0;points=[];autosize=1;strokeColor=none;fillColor=none;" vertex="1" parent="1">
          <mxGeometry x="405" y="445" width="30" height="30" as="geometry" />
        </mxCell>
        <mxCell id="0cwtL51T9AqTmGfK-nnY-39" value="0..1" style="text;html=1;align=center;verticalAlign=middle;resizable=0;points=[];autosize=1;strokeColor=none;fillColor=none;" vertex="1" parent="1">
          <mxGeometry x="255" y="245" width="40" height="30" as="geometry" />
        </mxCell>
        <mxCell id="0cwtL51T9AqTmGfK-nnY-41" style="edgeStyle=orthogonalEdgeStyle;rounded=0;orthogonalLoop=1;jettySize=auto;html=1;exitX=1;exitY=0.5;exitDx=0;exitDy=0;entryX=0.25;entryY=1;entryDx=0;entryDy=0;endArrow=none;startFill=0;" edge="1" parent="1" source="0cwtL51T9AqTmGfK-nnY-2" target="0cwtL51T9AqTmGfK-nnY-7">
          <mxGeometry relative="1" as="geometry" />
        </mxCell>
        <mxCell id="0cwtL51T9AqTmGfK-nnY-43" value="*" style="text;html=1;align=center;verticalAlign=middle;resizable=0;points=[];autosize=1;strokeColor=none;fillColor=none;" vertex="1" parent="1">
          <mxGeometry x="290" y="175" width="30" height="30" as="geometry" />
        </mxCell>
        <mxCell id="0cwtL51T9AqTmGfK-nnY-44" value="2..100" style="text;html=1;align=center;verticalAlign=middle;resizable=0;points=[];autosize=1;strokeColor=none;fillColor=none;" vertex="1" parent="1">
          <mxGeometry x="720" y="205" width="60" height="30" as="geometry" />
        </mxCell>
        <mxCell id="0cwtL51T9AqTmGfK-nnY-45" value="*" style="text;html=1;align=center;verticalAlign=middle;resizable=0;points=[];autosize=1;strokeColor=none;fillColor=none;" vertex="1" parent="1">
          <mxGeometry x="580" y="415" width="30" height="30" as="geometry" />
        </mxCell>
        <mxCell id="0cwtL51T9AqTmGfK-nnY-46" value="&lt;div&gt;*&lt;/div&gt;" style="text;html=1;align=center;verticalAlign=middle;resizable=0;points=[];autosize=1;strokeColor=none;fillColor=none;" vertex="1" parent="1">
          <mxGeometry x="545" y="607" width="30" height="30" as="geometry" />
        </mxCell>
        <mxCell id="0cwtL51T9AqTmGfK-nnY-47" value="1..4" style="text;html=1;align=center;verticalAlign=middle;resizable=0;points=[];autosize=1;strokeColor=none;fillColor=none;" vertex="1" parent="1">
          <mxGeometry x="730" y="695" width="40" height="30" as="geometry" />
        </mxCell>
        <mxCell id="0cwtL51T9AqTmGfK-nnY-48" value="1" style="text;html=1;align=center;verticalAlign=middle;resizable=0;points=[];autosize=1;strokeColor=none;fillColor=none;" vertex="1" parent="1">
          <mxGeometry x="805" y="306" width="30" height="30" as="geometry" />
        </mxCell>
        <mxCell id="0cwtL51T9AqTmGfK-nnY-53" value="Type_verification" style="swimlane;fontStyle=0;childLayout=stackLayout;horizontal=1;startSize=30;horizontalStack=0;resizeParent=1;resizeParentMax=0;resizeLast=0;collapsible=1;marginBottom=0;whiteSpace=wrap;html=1;" vertex="1" parent="1">
          <mxGeometry x="1000" y="390" width="140" height="60" as="geometry" />
        </mxCell>
        <mxCell id="0cwtL51T9AqTmGfK-nnY-55" value="name" style="text;strokeColor=none;fillColor=none;align=left;verticalAlign=middle;spacingLeft=4;spacingRight=4;overflow=hidden;points=[[0,0.5],[1,0.5]];portConstraint=eastwest;rotatable=0;whiteSpace=wrap;html=1;" vertex="1" parent="0cwtL51T9AqTmGfK-nnY-53">
          <mxGeometry y="30" width="140" height="30" as="geometry" />
        </mxCell>
        <mxCell id="0cwtL51T9AqTmGfK-nnY-57" value="Start_verification" style="swimlane;fontStyle=0;childLayout=stackLayout;horizontal=1;startSize=30;horizontalStack=0;resizeParent=1;resizeParentMax=0;resizeLast=0;collapsible=1;marginBottom=0;whiteSpace=wrap;html=1;" vertex="1" parent="1">
          <mxGeometry x="1010" y="540" width="140" height="60" as="geometry" />
        </mxCell>
        <mxCell id="0cwtL51T9AqTmGfK-nnY-58" value="data" style="text;strokeColor=none;fillColor=none;align=left;verticalAlign=middle;spacingLeft=4;spacingRight=4;overflow=hidden;points=[[0,0.5],[1,0.5]];portConstraint=eastwest;rotatable=0;whiteSpace=wrap;html=1;" vertex="1" parent="0cwtL51T9AqTmGfK-nnY-57">
          <mxGeometry y="30" width="140" height="30" as="geometry" />
        </mxCell>
        <mxCell id="0cwtL51T9AqTmGfK-nnY-59" value="End_verification" style="swimlane;fontStyle=0;childLayout=stackLayout;horizontal=1;startSize=30;horizontalStack=0;resizeParent=1;resizeParentMax=0;resizeLast=0;collapsible=1;marginBottom=0;whiteSpace=wrap;html=1;" vertex="1" parent="1">
          <mxGeometry x="1010" y="695" width="140" height="60" as="geometry" />
        </mxCell>
        <mxCell id="0cwtL51T9AqTmGfK-nnY-60" value="data" style="text;strokeColor=none;fillColor=none;align=left;verticalAlign=middle;spacingLeft=4;spacingRight=4;overflow=hidden;points=[[0,0.5],[1,0.5]];portConstraint=eastwest;rotatable=0;whiteSpace=wrap;html=1;" vertex="1" parent="0cwtL51T9AqTmGfK-nnY-59">
          <mxGeometry y="30" width="140" height="30" as="geometry" />
        </mxCell>
        <mxCell id="0cwtL51T9AqTmGfK-nnY-72" style="edgeStyle=orthogonalEdgeStyle;rounded=0;orthogonalLoop=1;jettySize=auto;html=1;exitX=1;exitY=0.25;exitDx=0;exitDy=0;endArrow=none;startFill=0;" edge="1" parent="1" source="0cwtL51T9AqTmGfK-nnY-68" target="0cwtL51T9AqTmGfK-nnY-55">
          <mxGeometry relative="1" as="geometry">
            <Array as="points">
              <mxPoint x="930" y="652" />
              <mxPoint x="930" y="490" />
              <mxPoint x="1051" y="490" />
            </Array>
          </mxGeometry>
        </mxCell>
        <mxCell id="0cwtL51T9AqTmGfK-nnY-94" style="edgeStyle=orthogonalEdgeStyle;rounded=0;orthogonalLoop=1;jettySize=auto;html=1;exitX=0.75;exitY=0;exitDx=0;exitDy=0;entryX=0.75;entryY=1;entryDx=0;entryDy=0;endArrow=none;startFill=0;" edge="1" parent="1" source="0cwtL51T9AqTmGfK-nnY-68" target="0cwtL51T9AqTmGfK-nnY-7">
          <mxGeometry relative="1" as="geometry" />
        </mxCell>
        <mxCell id="0cwtL51T9AqTmGfK-nnY-68" value="Verification_log" style="swimlane;fontStyle=0;childLayout=stackLayout;horizontal=1;startSize=30;horizontalStack=0;resizeParent=1;resizeParentMax=0;resizeLast=0;collapsible=1;marginBottom=0;whiteSpace=wrap;html=1;" vertex="1" parent="1">
          <mxGeometry x="770" y="629" width="140" height="90" as="geometry" />
        </mxCell>
        <mxCell id="0cwtL51T9AqTmGfK-nnY-69" value="id_verify" style="text;strokeColor=none;fillColor=none;align=left;verticalAlign=middle;spacingLeft=4;spacingRight=4;overflow=hidden;points=[[0,0.5],[1,0.5]];portConstraint=eastwest;rotatable=0;whiteSpace=wrap;html=1;" vertex="1" parent="0cwtL51T9AqTmGfK-nnY-68">
          <mxGeometry y="30" width="140" height="30" as="geometry" />
        </mxCell>
        <mxCell id="0cwtL51T9AqTmGfK-nnY-70" value="status" style="text;strokeColor=none;fillColor=none;align=left;verticalAlign=middle;spacingLeft=4;spacingRight=4;overflow=hidden;points=[[0,0.5],[1,0.5]];portConstraint=eastwest;rotatable=0;whiteSpace=wrap;html=1;" vertex="1" parent="0cwtL51T9AqTmGfK-nnY-68">
          <mxGeometry y="60" width="140" height="30" as="geometry" />
        </mxCell>
        <mxCell id="0cwtL51T9AqTmGfK-nnY-73" value="&lt;div&gt;validated_by&lt;/div&gt;" style="text;html=1;align=center;verticalAlign=middle;resizable=0;points=[];autosize=1;strokeColor=none;fillColor=none;" vertex="1" parent="1">
          <mxGeometry x="565" y="658" width="90" height="30" as="geometry" />
        </mxCell>
        <mxCell id="0cwtL51T9AqTmGfK-nnY-74" value="&lt;div&gt;involve&lt;/div&gt;" style="text;html=1;align=center;verticalAlign=middle;resizable=0;points=[];autosize=1;strokeColor=none;fillColor=none;" vertex="1" parent="1">
          <mxGeometry x="260" y="428" width="60" height="30" as="geometry" />
        </mxCell>
        <mxCell id="0cwtL51T9AqTmGfK-nnY-80" value="created" style="text;html=1;align=center;verticalAlign=middle;resizable=0;points=[];autosize=1;strokeColor=none;fillColor=none;" vertex="1" parent="1">
          <mxGeometry x="730" y="398" width="60" height="30" as="geometry" />
        </mxCell>
        <mxCell id="0cwtL51T9AqTmGfK-nnY-81" value="is" style="text;html=1;align=center;verticalAlign=middle;resizable=0;points=[];autosize=1;strokeColor=none;fillColor=none;" vertex="1" parent="1">
          <mxGeometry x="960" y="498" width="30" height="30" as="geometry" />
        </mxCell>
        <mxCell id="0cwtL51T9AqTmGfK-nnY-82" value="started" style="text;html=1;align=center;verticalAlign=middle;resizable=0;points=[];autosize=1;strokeColor=none;fillColor=none;" vertex="1" parent="1">
          <mxGeometry x="970" y="618" width="60" height="30" as="geometry" />
        </mxCell>
        <mxCell id="0cwtL51T9AqTmGfK-nnY-83" value="ended" style="text;html=1;align=center;verticalAlign=middle;resizable=0;points=[];autosize=1;strokeColor=none;fillColor=none;" vertex="1" parent="1">
          <mxGeometry x="940" y="710" width="60" height="30" as="geometry" />
        </mxCell>
        <mxCell id="0cwtL51T9AqTmGfK-nnY-84" value="1" style="text;html=1;align=center;verticalAlign=middle;resizable=0;points=[];autosize=1;strokeColor=none;fillColor=none;" vertex="1" parent="1">
          <mxGeometry x="1055" y="450" width="30" height="30" as="geometry" />
        </mxCell>
        <mxCell id="0cwtL51T9AqTmGfK-nnY-85" value="*" style="text;html=1;align=center;verticalAlign=middle;resizable=0;points=[];autosize=1;strokeColor=none;fillColor=none;" vertex="1" parent="1">
          <mxGeometry x="900" y="607" width="30" height="30" as="geometry" />
        </mxCell>
        <mxCell id="0cwtL51T9AqTmGfK-nnY-86" value="1" style="text;html=1;align=center;verticalAlign=middle;resizable=0;points=[];autosize=1;strokeColor=none;fillColor=none;" vertex="1" parent="1">
          <mxGeometry x="910" y="658" width="30" height="30" as="geometry" />
        </mxCell>
        <mxCell id="0cwtL51T9AqTmGfK-nnY-87" value="0..1" style="text;html=1;align=center;verticalAlign=middle;resizable=0;points=[];autosize=1;strokeColor=none;fillColor=none;" vertex="1" parent="1">
          <mxGeometry x="1075" y="600" width="40" height="30" as="geometry" />
        </mxCell>
        <mxCell id="0cwtL51T9AqTmGfK-nnY-88" value="0..1" style="text;html=1;align=center;verticalAlign=middle;resizable=0;points=[];autosize=1;strokeColor=none;fillColor=none;" vertex="1" parent="1">
          <mxGeometry x="971" y="741" width="40" height="30" as="geometry" />
        </mxCell>
        <mxCell id="0cwtL51T9AqTmGfK-nnY-89" value="1" style="text;html=1;align=center;verticalAlign=middle;resizable=0;points=[];autosize=1;strokeColor=none;fillColor=none;" vertex="1" parent="1">
          <mxGeometry x="910" y="710" width="30" height="30" as="geometry" />
        </mxCell>
        <mxCell id="0cwtL51T9AqTmGfK-nnY-93" value="has" style="text;html=1;align=center;verticalAlign=middle;resizable=0;points=[];autosize=1;strokeColor=none;fillColor=none;" vertex="1" parent="1">
          <mxGeometry x="490" y="158" width="40" height="30" as="geometry" />
        </mxCell>
        <mxCell id="0cwtL51T9AqTmGfK-nnY-95" value="review" style="text;html=1;align=center;verticalAlign=middle;resizable=0;points=[];autosize=1;strokeColor=none;fillColor=none;" vertex="1" parent="1">
          <mxGeometry x="880" y="445" width="60" height="30" as="geometry" />
        </mxCell>
        <mxCell id="0cwtL51T9AqTmGfK-nnY-96" value="*" style="text;html=1;align=center;verticalAlign=middle;resizable=0;points=[];autosize=1;strokeColor=none;fillColor=none;" vertex="1" parent="1">
          <mxGeometry x="840" y="600" width="30" height="30" as="geometry" />
        </mxCell>
        <mxCell id="0cwtL51T9AqTmGfK-nnY-97" value="1" style="text;html=1;align=center;verticalAlign=middle;resizable=0;points=[];autosize=1;strokeColor=none;fillColor=none;" vertex="1" parent="1">
          <mxGeometry x="877" y="306" width="30" height="30" as="geometry" />
        </mxCell>
      </root>
    </mxGraphModel>
  </diagram>
</mxfile>
